<?xml version="1.0" encoding="UTF-8" standalone="no"?>
<!-- Generator: Adobe Illustrator 27.8.1, SVG Export Plug-In . SVG Version: 6.00 Build 0)  -->

<svg
   version="1.1"
   id="Capa_1"
   x="0px"
   y="0px"
   viewBox="0 0 191.203 41.6875"
   xml:space="preserve"
   sodipodi:docname="LOGO_INECO.svg"
   width="191.203"
   height="41.6875"
   inkscape:export-filename="LOGO_INECO-2.svg"
   inkscape:export-xdpi="96"
   inkscape:export-ydpi="96"
   xmlns:inkscape="http://www.inkscape.org/namespaces/inkscape"
   xmlns:sodipodi="http://sodipodi.sourceforge.net/DTD/sodipodi-0.dtd"
   xmlns="http://www.w3.org/2000/svg"
   xmlns:svg="http://www.w3.org/2000/svg"><defs
   id="defs344" /><sodipodi:namedview
   id="namedview342"
   pagecolor="#ffffff"
   bordercolor="#000000"
   borderopacity="0.25"
   inkscape:showpageshadow="2"
   inkscape:pageopacity="0.0"
   inkscape:pagecheckerboard="0"
   inkscape:deskcolor="#d1d1d1"
   showgrid="false" />
<style
   type="text/css"
   id="style239">
	.st0{fill:#1D428A;}
	.st1{fill:url(#SVGID_1_);}
	.st2{fill:url(#SVGID_00000002382770878351925070000006155781754861535910_);}
	.st3{fill:url(#SVGID_00000149350357783397331360000016372755289405685152_);}
	.st4{fill:url(#SVGID_00000089540944234167974030000011175331585287622273_);}
</style>
<g
   id="g339"
   transform="matrix(0.12768616,0,0,0.12766528,-26.977532,-48.095341)">
	<g
   id="g251">
		<path
   class="st0"
   d="m 589.68,379.92 h 58.16 v 55.45 h -58.16 z m 0,84.3 h 58.16 v 234.42 h -58.16 z"
   id="path241" />
		<path
   class="st0"
   d="m 831.31,459.71 c 23.89,0 44.18,8.57 61.31,26.15 17.58,17.58 26.15,43.28 26.15,77.54 V 698.64 H 860.62 V 567.01 c 0,-37.87 -21.64,-56.35 -50.49,-56.35 -15.78,0 -29.3,5.86 -39.67,17.13 -10.37,11.27 -16.23,22.09 -16.68,32.46 v 138.4 H 695.62 V 464.22 h 58.16 v 45.98 c 3.15,-10.37 11.72,-21.19 25.7,-32.91 13.96,-11.72 31.1,-17.58 51.83,-17.58 z"
   id="path243" />
		<path
   class="st0"
   d="m 1073.85,459.71 c 28.4,0 57.25,11.27 81.14,32.91 24.8,21.64 37.87,61.31 32.01,110 h -175.37 c 7.21,32.91 33.81,51.39 68.07,51.39 27.5,0 41.02,-5.41 60.86,-18.03 l 32.01,31.11 c -22.54,23.89 -54.1,36.07 -94.67,36.07 -32.46,0 -61.31,-10.82 -86.55,-32.01 -24.8,-21.64 -37.42,-51.39 -37.42,-89.26 0.01,-81.61 67.18,-122.18 119.92,-122.18 z m 0,49.59 c -27.5,0 -54.1,18.48 -61.76,50.94 h 123.07 c -4.95,-32.45 -32.46,-50.94 -61.31,-50.94 z"
   id="path245" />
		<path
   class="st0"
   d="m 1336.23,459.71 c 45.53,0 78.89,18.93 100.08,56.35 l -44.18,20.74 c -14.88,-17.13 -33.36,-25.7 -55.45,-25.7 -17.58,0 -32.91,6.31 -46.43,18.94 -13.07,12.62 -19.84,29.75 -19.84,51.84 0,21.64 6.76,38.77 20.29,51.39 13.52,12.17 28.85,18.48 45.98,18.48 22.09,0 40.57,-8.57 55.45,-25.25 l 45.08,20.74 c -22.09,37.42 -55.9,55.9 -100.98,55.9 -27.5,0 -56.35,-10.37 -81.15,-29.75 -23.89,-19.38 -41.03,-52.29 -41.03,-91.51 0,-39.22 17.13,-72.58 41.03,-91.97 24.8,-19.38 53.65,-30.2 81.15,-30.2 z"
   id="path247" />
		<path
   class="st0"
   d="m 1544.06,467.83 c 28.4,-10.82 55.45,-10.82 83.85,0 28.4,10.37 54.1,28.4 68.98,60.86 15.78,32.01 15.78,74.38 0,106.39 -14.88,32.01 -40.57,50.04 -68.98,60.41 -28.4,10.37 -55.45,10.37 -83.85,0 -28.4,-10.37 -53.65,-28.4 -69.43,-60.41 -14.88,-32.01 -14.88,-74.39 0,-106.39 15.78,-32.46 41.03,-50.5 69.43,-60.86 z m -24.35,114.05 c 0,21.64 6.76,38.77 20.29,51.39 13.52,12.17 28.85,18.48 45.98,18.48 17.58,0 32.91,-6.31 46.43,-18.48 13.52,-12.62 20.29,-29.75 20.29,-51.39 0,-22.09 -6.76,-39.22 -20.29,-51.84 -13.52,-12.62 -28.85,-18.94 -46.43,-18.94 -17.58,0 -32.91,6.31 -46.43,18.94 -13.07,12.62 -19.84,29.75 -19.84,51.84 z"
   id="path249" />
	</g>
	<g
   id="g337">
		<linearGradient
   id="SVGID_1_"
   gradientUnits="userSpaceOnUse"
   x1="231.7355"
   y1="311.6691"
   x2="528.34631"
   y2="612.01068">
			<stop
   offset="0"
   style="stop-color:#1D428A"
   id="stop253" />
			<stop
   offset="0.1823"
   style="stop-color:#204188"
   id="stop255" />
			<stop
   offset="0.3321"
   style="stop-color:#2A4083"
   id="stop257" />
			<stop
   offset="0.4705"
   style="stop-color:#3C3D7A"
   id="stop259" />
			<stop
   offset="0.6018"
   style="stop-color:#54386D"
   id="stop261" />
			<stop
   offset="0.7284"
   style="stop-color:#73335D"
   id="stop263" />
			<stop
   offset="0.8512"
   style="stop-color:#992C48"
   id="stop265" />
			<stop
   offset="0.9689"
   style="stop-color:#C62431"
   id="stop267" />
			<stop
   offset="1"
   style="stop-color:#D3222A"
   id="stop269" />
		</linearGradient>
		<rect
   x="432.73001"
   y="376.73001"
   class="st1"
   width="45.610001"
   height="323.10001"
   id="rect272"
   style="fill:url(#SVGID_1_)" />
		
			<linearGradient
   id="SVGID_00000034078494294956941350000000113486579185347969_"
   gradientUnits="userSpaceOnUse"
   x1="191.3235"
   y1="351.5791"
   x2="487.9342"
   y2="651.92078">
			<stop
   offset="0"
   style="stop-color:#1D428A"
   id="stop274" />
			<stop
   offset="0.1823"
   style="stop-color:#204188"
   id="stop276" />
			<stop
   offset="0.3321"
   style="stop-color:#2A4083"
   id="stop278" />
			<stop
   offset="0.4705"
   style="stop-color:#3C3D7A"
   id="stop280" />
			<stop
   offset="0.6018"
   style="stop-color:#54386D"
   id="stop282" />
			<stop
   offset="0.7284"
   style="stop-color:#73335D"
   id="stop284" />
			<stop
   offset="0.8512"
   style="stop-color:#992C48"
   id="stop286" />
			<stop
   offset="0.9689"
   style="stop-color:#C62431"
   id="stop288" />
			<stop
   offset="1"
   style="stop-color:#D3222A"
   id="stop290" />
		</linearGradient>
		<polygon
   style="fill:url(#SVGID_00000034078494294956941350000000113486579185347969_)"
   points="356.73,376.73 338.97,376.73 338.97,699.83 412.44,699.83 412.44,376.73 "
   id="polygon293" />
		
			<linearGradient
   id="SVGID_00000054227456048319648990000010559992999244490896_"
   gradientUnits="userSpaceOnUse"
   x1="139.26669"
   y1="402.9892"
   x2="435.8775"
   y2="703.33087">
			<stop
   offset="0"
   style="stop-color:#1D428A"
   id="stop295" />
			<stop
   offset="0.1823"
   style="stop-color:#204188"
   id="stop297" />
			<stop
   offset="0.3321"
   style="stop-color:#2A4083"
   id="stop299" />
			<stop
   offset="0.4705"
   style="stop-color:#3C3D7A"
   id="stop301" />
			<stop
   offset="0.6018"
   style="stop-color:#54386D"
   id="stop303" />
			<stop
   offset="0.7284"
   style="stop-color:#73335D"
   id="stop305" />
			<stop
   offset="0.8512"
   style="stop-color:#992C48"
   id="stop307" />
			<stop
   offset="0.9689"
   style="stop-color:#C62431"
   id="stop309" />
			<stop
   offset="1"
   style="stop-color:#D3222A"
   id="stop311" />
		</linearGradient>
		<path
   style="fill:url(#SVGID_00000054227456048319648990000010559992999244490896_)"
   d="m 211.28,403.78 v 269 c 0,14.88 12.17,27.05 27.05,27.05 h 80.35 v -323.1 h -80.35 c -14.88,0 -27.05,12.18 -27.05,27.05 z"
   id="path314" />
		
			<linearGradient
   id="SVGID_00000154412860882909017980000015414211201785049479_"
   gradientUnits="userSpaceOnUse"
   x1="262.60049"
   y1="281.1875"
   x2="559.21118"
   y2="581.52917">
			<stop
   offset="0"
   style="stop-color:#1D428A"
   id="stop316" />
			<stop
   offset="0.1823"
   style="stop-color:#204188"
   id="stop318" />
			<stop
   offset="0.3321"
   style="stop-color:#2A4083"
   id="stop320" />
			<stop
   offset="0.4705"
   style="stop-color:#3C3D7A"
   id="stop322" />
			<stop
   offset="0.6018"
   style="stop-color:#54386D"
   id="stop324" />
			<stop
   offset="0.7284"
   style="stop-color:#73335D"
   id="stop326" />
			<stop
   offset="0.8512"
   style="stop-color:#992C48"
   id="stop328" />
			<stop
   offset="0.9689"
   style="stop-color:#C62431"
   id="stop330" />
			<stop
   offset="1"
   style="stop-color:#D3222A"
   id="stop332" />
		</linearGradient>
		<path
   style="fill:url(#SVGID_00000154412860882909017980000015414211201785049479_)"
   d="m 498.63,376.73 v 323.1 h 8.7 c 14.88,0 27.05,-12.17 27.05,-27.05 V 551.84 403.78 376.73 Z"
   id="path335" />
	</g>
</g>
</svg>
