<svg xmlns="http://www.w3.org/2000/svg" version="1.1" xmlns:xlink="http://www.w3.org/1999/xlink" xmlns:svgjs="http://svgjs.dev/svgjs" width="2000" height="1252" viewBox="0 0 2000 1252"><g transform="matrix(1,0,0,1,-1.2121212121212466,-2.01935483870966)"><svg viewBox="0 0 396 248" data-background-color="#89939e" preserveAspectRatio="xMidYMid meet" height="1252" width="2000" xmlns="http://www.w3.org/2000/svg" xmlns:xlink="http://www.w3.org/1999/xlink"><g id="tight-bounds" transform="matrix(1,0,0,1,0.2400000000000091,0.4000000000000057)"><svg viewBox="0 0 395.52 247.2" height="247.2" width="395.52"><g><svg></svg></g><g><svg viewBox="0 0 395.52 247.2" height="247.2" width="395.52"><g transform="matrix(1,0,0,1,75.54432,80.41581916057162)"><svg viewBox="0 0 244.43135999999998 86.36836167885676" height="86.36836167885676" width="244.43135999999998"><g><svg viewBox="0 0 427.511342679953 151.05858048" height="86.36836167885676" width="244.43135999999998"><g transform="matrix(1,0,0,1,0,7.709176802054188)"><svg viewBox="0 0 244.43135999999998 135.6402268758916" height="135.6402268758916" width="244.43135999999998"><g id="textblocktransform"><svg viewBox="0 0 244.43135999999998 135.6402268758916" height="135.6402268758916" width="244.43135999999998" id="textblock"><g><svg viewBox="0 0 244.43135999999998 135.6402268758916" height="135.6402268758916" width="244.43135999999998"><g transform="matrix(1,0,0,1,0,0)"><svg width="244.43135999999998" viewBox="1 -38.9 70.1 38.9" height="135.6402268758916" data-palette-color="#000000"><path d="M24.05 0L1 0 1-8.2 3.5-8.2 3.5-30.7 1-30.7 1-38.9 30.9-38.9 30.9-25.95 22.05-25.95 22.05-30.7 17.5-30.7 17.5-22.4 25.05-22.4 25.05-16.7 17.5-16.7 17.5-8.2 24.05-8.2 24.05 0ZM32.6 0L32.6-8.2 35.1-8.2 35.1-30.65 32.6-30.65 32.6-38.9 52.9-38.9Q61.25-38.9 66.17-34.33 71.1-29.75 71.1-19.45L71.1-19.45Q71.1-9.15 66.17-4.58 61.25 0 52.9 0L52.9 0 32.6 0ZM49.1-8.2L52-8.2Q53.7-8.2 54.55-9.1 55.4-10 55.4-11.9L55.4-11.9 55.4-27Q55.4-30.7 52-30.7L52-30.7 49.1-30.7 49.1-8.2Z" opacity="1" transform="matrix(1,0,0,1,0,0)" fill="#000000" class="wordmark-text-0" data-fill-palette-color="primary" id="text-0"></path></svg></g></svg></g></svg></g></svg></g><g transform="matrix(1,0,0,1,276.452762199953,0)"><svg viewBox="0 0 151.05858048 151.05858048" height="151.05858048" width="151.05858048"><g><svg xmlns="http://www.w3.org/2000/svg" xmlns:xlink="http://www.w3.org/1999/xlink" version="1.0" x="0" y="0" viewBox="10 10 80 80" enable-background="new 0 0 100 100" xml:space="preserve" height="151.05858048" width="151.05858048" class="icon-icon-0" data-fill-palette-color="accent" id="icon-0"><path fill="none" stroke="#000000" stroke-linecap="round" stroke-linejoin="round" stroke-miterlimit="10" d="M78.33 56.667L80.275 72.222z"></path><path fill="none" stroke="#000000" stroke-linecap="round" stroke-linejoin="round" stroke-miterlimit="10" d="M75.689 22.862V19.705C75.021 14.236 70.37 10 64.722 10 59.075 10 54.424 14.235 53.754 19.704V22.861A3.675 3.675 0 0 0 51.293 26.322C51.293 29.467 52.889 32.011 54.875 32.1 56.703 37.731 60.424 41.596 64.722 41.596S72.738 37.732 74.568 32.1C76.554 32.011 78.151 29.467 78.151 26.322 78.15 24.721 77.118 23.371 75.689 22.862"></path><path fill="none" stroke="#000000" stroke-linecap="round" stroke-linejoin="round" stroke-miterlimit="10" d="M63.359 24.58H56.553V26.525C56.553 27.596 57.43 28.472 58.499 28.472H61.416A1.95 1.95 0 0 0 63.358 26.525z"></path><path fill="none" stroke="#000000" stroke-linecap="round" stroke-linejoin="round" stroke-miterlimit="10" d="M56.554 24.58L53.754 22.862z"></path><path fill="none" stroke="#000000" stroke-linecap="round" stroke-linejoin="round" stroke-miterlimit="10" d="M66.081 24.58H72.887V26.525A1.95 1.95 0 0 1 70.943 28.472H68.027A1.95 1.95 0 0 1 66.082 26.525z"></path><path fill="none" stroke="#000000" stroke-linecap="round" stroke-linejoin="round" stroke-miterlimit="10" d="M72.889 24.58L75.69 22.862z"></path><path fill="none" stroke="#000000" stroke-linecap="round" stroke-linejoin="round" stroke-miterlimit="10" d="M63.359 24.58H66.081z"></path><path fill="none" stroke="#000000" stroke-linecap="round" stroke-linejoin="round" stroke-miterlimit="10" d="M62.292 35.745"></path><path fill="none" stroke="#000000" stroke-linecap="round" stroke-linejoin="round" stroke-miterlimit="10" d="M75.689 22.862A10.97 10.97 0 0 1 67.909 19.641H67.909A10.96 10.96 0 0 0 60.132 16.419C56.61 16.419 53.754 19.304 53.754 22.862V19.705C54.424 14.236 59.074 10 64.722 10S75.021 14.235 75.69 19.704V22.862z"></path><path fill="none" stroke="#000000" stroke-linecap="round" stroke-linejoin="round" stroke-miterlimit="10" d="M64.722 48.889A9.7 9.7 0 0 0 72.556 44.908 5.2 5.2 0 0 1 71.11 43.906 5.16 5.16 0 0 1 69.59 40.238V39.809C68.121 40.948 66.471 41.597 64.722 41.597 62.974 41.597 61.324 40.948 59.856 39.809V40.238A5.17 5.17 0 0 1 58.335 43.906 5.2 5.2 0 0 1 56.886 44.905C58.656 47.317 61.503 48.889 64.722 48.889"></path><path fill="none" stroke="#000000" stroke-linecap="round" stroke-linejoin="round" stroke-miterlimit="10" d="M72.792 45.033C72.708 44.999 72.637 44.944 72.556 44.908A9.697 9.697 0 0 1 56.886 44.905C56.808 44.945 56.735 44.997 56.65 45.033L53.235 46.448C55.65 50.248 59.886 52.778 64.721 52.778 69.558 52.778 73.793 50.249 76.21 46.448z"></path><path fill="none" stroke="#000000" stroke-linecap="round" stroke-linejoin="round" stroke-miterlimit="10" d="M58.889 85.556H10V87.78A2.23 2.23 0 0 0 12.223 90H56.667A2.227 2.227 0 0 0 58.889 87.779z"></path><path fill="none" stroke="#000000" stroke-linecap="round" stroke-linejoin="round" stroke-miterlimit="10" d="M58.889 82.219C58.889 84.052 57.389 85.552 55.556 85.552H13.335A3.344 3.344 0 0 1 10 82.219V57.774C10 55.941 11.5 54.439 13.335 54.439H55.556A3.345 3.345 0 0 1 58.889 57.774z"></path><path fill="none" stroke="#000000" stroke-linecap="round" stroke-linejoin="round" stroke-miterlimit="10" d="M55.556 54.439A3.345 3.345 0 0 1 58.889 57.774V72.221H90L89.996 57.395C89.996 54.926 88.996 52.691 87.382 51.074L76.21 46.448C73.793 50.248 69.558 52.778 64.721 52.778 59.886 52.778 55.65 50.249 53.235 46.448L42.063 51.074A8.9 8.9 0 0 0 39.956 54.439z"></path><circle fill="none" stroke="#000000" stroke-linecap="round" stroke-linejoin="round" stroke-miterlimit="10" cx="34.444" cy="70" r="3.3"></circle></svg></g></svg></g></svg></g></svg></g><g><path d="M245.816 0c68.262 0 123.6 55.338 123.6 123.6 0 68.262-55.338 123.6-123.6 123.6-49.555 0-92.298-29.162-112.004-71.262h3.874c19.45 40.11 60.56 67.765 108.13 67.765 66.331 0 120.103-53.772 120.103-120.103 0-66.331-53.772-120.103-120.103-120.103-47.569 0-88.679 27.655-108.13 67.765h-3.874c19.706-42.099 62.45-71.262 112.004-71.262z" fill="#000000" stroke="transparent" data-fill-palette-color="tertiary"></path></g></svg></g><defs></defs></svg><rect width="395.52" height="247.2" fill="none" stroke="none" visibility="hidden"></rect></g></svg></g></svg>